<svg xmlns="http://www.w3.org/2000/svg" version="1.1" xmlns:xlink="http://www.w3.org/1999/xlink" xmlns:svgjs="http://svgjs.dev/svgjs" width="1000" height="517" viewBox="0 0 1000 517"><g transform="matrix(1,0,0,1,-0.6060606060606233,-0.49567543708343464)"><svg viewBox="0 0 396 205" data-background-color="#ff5858" preserveAspectRatio="xMidYMid meet" height="517" width="1000" xmlns="http://www.w3.org/2000/svg" xmlns:xlink="http://www.w3.org/1999/xlink"><g id="tight-bounds" transform="matrix(1,0,0,1,0.2400000000000091,0.19654441895958996)"><svg viewBox="0 0 395.52 204.60691116208082" height="204.60691116208082" width="395.52"><g><svg viewBox="0 0 397.4975999999999 205.6299457178912" height="204.60691116208082" width="395.52"><g><rect width="397.4975999999999" height="6.298173648633443" x="0" y="113.00517856888361" fill="#ffffff" opacity="1" stroke-width="0" stroke="transparent" fill-opacity="1" class="rect-yj-0" data-fill-palette-color="secondary" rx="1%" id="yj-0" data-palette-color="#ffffff"></rect></g><g transform="matrix(1,0,0,1,0.9887999999999693,135.7907177898559)"><svg viewBox="0 0 395.52 69.83922792803527" height="69.83922792803527" width="395.52"><g><svg viewBox="0 0 395.52 69.83922792803527" height="69.83922792803527" width="395.52"><g><svg viewBox="0 0 395.52 69.83922792803527" height="69.83922792803527" width="395.52"><g transform="matrix(1,0,0,1,0,0)"><svg width="395.52" viewBox="1.07 -35.6 204.89000000000001 36.190000000000005" height="69.83922792803527" data-palette-color="#ffffff"><path d="M28.91-19.38L28.91-19.38Q28.91-15.97 28.03-13.22 27.15-10.47 25.57-8.34 24-6.2 21.83-4.66 19.65-3.13 17.07-2.14 14.48-1.15 11.56-0.67 8.64-0.2 5.57-0.2L5.57-0.2Q4.42-0.2 3.32-0.26 2.22-0.32 1.07-0.44L1.07-0.44 1.76-33.2Q4.44-34.06 7.29-34.41 10.13-34.77 12.94-34.77L12.94-34.77Q16.43-34.77 19.36-33.72 22.29-32.67 24.41-30.69 26.54-28.71 27.72-25.85 28.91-23 28.91-19.38ZM18.9-17.48L18.9-17.82Q18.92-19.14 18.62-20.36 18.31-21.58 17.61-22.52 16.92-23.46 15.84-24.04 14.77-24.61 13.28-24.66L13.28-24.66 12.3-9.52Q13.77-9.74 14.97-10.49 16.16-11.23 17.03-12.32 17.9-13.4 18.37-14.73 18.85-16.06 18.9-17.48L18.9-17.48ZM30.98-35.21L53.49-35.21Q53.34-32.91 53.22-30.66 53.1-28.42 52.9-26.12L52.9-26.12 42.55-25.59 42.31-22.51 49.58-22.51 49.05-14.94 41.72-14.7 41.48-11.13 47.53-11.13 51.83-11.13Q51.68-8.45 51.52-5.8 51.36-3.15 51.24-0.49L51.24-0.49 30.2 0 30.98-35.21ZM72.94-34.96L84.17-34.23 75.24-0.24 63.13 0.44 52.14-33.89 63.72-34.96 68.4-14.94 72.94-34.96ZM118.91-34.33L118.91-34.33 117.54-24.02Q116.84-24.22 116.13-24.29 115.42-24.37 114.71-24.37L114.71-24.37Q112.91-24.37 111.27-23.89 109.63-23.41 108.38-22.44 107.12-21.46 106.37-20 105.63-18.53 105.63-16.55L105.63-16.55Q105.63-15.28 106.03-14.36 106.44-13.43 107.17-12.82 107.9-12.21 108.9-11.91 109.9-11.62 111.1-11.62L111.1-11.62Q112-11.62 112.98-11.82 113.95-12.01 114.91-12.33 115.86-12.65 116.76-13.06 117.67-13.48 118.42-13.92L118.42-13.92 117.45-2.44Q116.49-1.95 115.38-1.57 114.27-1.2 113.1-0.92 111.93-0.63 110.76-0.49 109.58-0.34 108.51-0.34L108.51-0.34Q105.41-0.34 102.72-1.49 100.04-2.64 98.06-4.64 96.08-6.64 94.95-9.36 93.81-12.08 93.81-15.23L93.81-15.23Q93.81-19.41 95.01-23.11 96.21-26.81 98.53-29.59 100.84-32.37 104.27-33.98 107.7-35.6 112.17-35.6L112.17-35.6Q113.86-35.6 115.63-35.33 117.4-35.06 118.91-34.33ZM148.64-34.81L149.43 0 137.22 0.59 137.12-10.69 131.51-10.69 131.16 0 120.23 0 121.15-34.33 132.78-33.79 132.04-16.26 137.46-16.26 137.51-35.11 148.64-34.81ZM173.01-34.96L182.53-2.1 170.42-0.54 168.95-6.05 163.39-6.05 162.17-0.54 149.72-1.76 159.43-34.28 173.01-34.96ZM164.41-13.53L168.08-13.53 166.22-22.02 164.41-13.53ZM179.35-34.86L205.96-34.91 205.72-24.56 198.44-24.27 196.59-1.12 186.29-0.59 186.34-23.73 179.06-23.34 179.35-34.86Z" opacity="1" transform="matrix(1,0,0,1,0,0)" fill="#ffffff" class="undefined-text-0" data-fill-palette-color="primary" id="text-0"></path></svg></g></svg></g></svg></g></svg></g><g transform="matrix(1,0,0,1,126.40354941382911,0)"><svg viewBox="0 0 144.6905011723417 96.51781299654475" height="96.51781299654475" width="144.6905011723417"><g><svg xmlns="http://www.w3.org/2000/svg" xmlns:xlink="http://www.w3.org/1999/xlink" version="1.1" x="8" y="0" viewBox="0.0779999999999994 64.059 511.84300013935683 383.88199999999995" enable-background="new 0 0 512 512" xml:space="preserve" height="96.51781299654475" width="128.6905011723417" class="icon-icon-0" data-fill-palette-color="accent" id="icon-0"><g fill="#ffffff" data-fill-palette-color="accent"><path d="M476.175 391.959h-0.086c-2.202 0-3.952 1.788-3.952 3.998 0 2.211 1.828 3.999 4.038 3.999 2.202 0 3.999-1.788 3.999-3.999C480.174 393.747 478.377 391.959 476.175 391.959z" fill="#ffffff" data-fill-palette-color="accent"></path><path d="M460.18 391.959h-0.086c-2.202 0-3.952 1.788-3.952 3.998 0 2.211 1.828 3.999 4.038 3.999 2.203 0 3.999-1.788 3.999-3.999C464.179 393.747 462.383 391.959 460.18 391.959z" fill="#ffffff" data-fill-palette-color="accent"></path><path d="M444.185 391.959h-0.086c-2.202 0-3.952 1.788-3.952 3.998 0 2.211 1.828 3.999 4.038 3.999 2.202 0 3.999-1.788 3.999-3.999C448.184 393.747 446.387 391.959 444.185 391.959z" fill="#ffffff" data-fill-palette-color="accent"></path><path d="M499.926 64.059H12.074c-6.615 0-11.996 5.381-11.996 11.996v7.998V419.95c0 2.21 1.788 3.999 3.999 3.999H395.23l63.301 23.734c0.461 0.172 0.93 0.258 1.406 0.258 0.805 0 1.602-0.242 2.281-0.711 1.077-0.75 1.718-1.976 1.718-3.288v-19.993h43.986c2.21 0 3.999-1.789 3.999-3.999V84.052v-7.998C511.922 69.439 506.541 64.059 499.926 64.059zM8.075 76.055c0-2.206 1.797-3.999 3.999-3.999h8.154c-2.203 0-3.952 1.789-3.952 3.999 0 2.21 1.827 3.999 4.038 3.999 2.203 0 3.999-1.789 3.999-3.999 0-2.21-1.796-3.999-3.999-3.999h15.909c-2.203 0-3.952 1.789-3.952 3.999 0 2.21 1.827 3.999 4.038 3.999 2.203 0 3.999-1.789 3.999-3.999 0-2.21-1.796-3.999-3.999-3.999h15.909c-2.203 0-3.952 1.789-3.952 3.999 0 2.21 1.827 3.999 4.038 3.999 2.203 0 3.999-1.789 3.999-3.999 0-2.21-1.796-3.999-3.999-3.999h447.622c2.202 0 3.998 1.793 3.998 3.999v3.999H52.304 36.309 20.314 8.075V76.055zM503.924 415.951h-43.986c-2.21 0-3.998 1.788-3.998 3.999v18.221l-58.576-21.962c-0.453-0.172-0.93-0.258-1.406-0.258H8.075v-327.9h495.849V415.951z" fill="#ffffff" data-fill-palette-color="accent"></path><path d="M76.055 208.015c28.663 0 51.984-23.321 51.984-51.984s-23.321-51.984-51.984-51.984S24.07 127.367 24.07 156.03 47.392 208.015 76.055 208.015zM49.329 190.887c14.691-6.291 14.73-8.81 14.73-10.863v-0.727c3.983 2.882 8.177 4.725 11.988 4.725s8.013-1.843 12.004-4.729v0.73c0 2.054 0.039 4.572 14.73 10.863-7.42 5.702-16.667 9.13-26.727 9.13S56.748 196.588 49.329 190.887zM76.047 176.024c-6.412 0-19.986-12.316-19.986-26.031 0-12.723 8.404-21.954 19.986-21.954 11.59 0 20.002 9.231 20.002 21.954C96.049 163.974 82.631 176.024 76.047 176.024zM76.055 112.044c24.25 0 43.986 19.732 43.986 43.986 0 11.044-4.123 21.119-10.863 28.851-5.444-2.245-11.067-4.889-13.129-6.318v-7.146c4.67-6.092 7.997-13.675 7.997-21.423 0-17.077-12.035-29.952-27.999-29.952-15.956 0-27.983 12.875-27.983 29.952 0 7.748 3.335 15.335 7.997 21.427v7.143c-2.062 1.43-7.685 4.073-13.128 6.318-6.74-7.732-10.864-17.807-10.864-28.851C32.068 131.776 51.805 112.044 76.055 112.044z" fill="#ffffff" data-fill-palette-color="accent"></path><path d="M427.947 327.979c28.663 0 51.984-23.321 51.984-51.984 0-28.664-23.321-51.984-51.984-51.984s-51.984 23.321-51.984 51.984C375.963 304.657 399.284 327.979 427.947 327.979zM401.221 310.851c14.691-6.295 14.73-8.81 14.73-10.864v-0.727c3.983 2.883 8.185 4.726 11.996 4.726s8.014-1.843 11.996-4.726v0.727c0 2.055 0.039 4.569 14.73 10.864-7.42 5.701-16.675 9.13-26.727 9.13S408.641 316.552 401.221 310.851zM427.947 295.988c-6.584 0-19.994-12.052-19.994-26.031 0-12.723 8.412-21.955 19.994-21.955s19.994 9.232 19.994 21.955C447.941 283.671 434.359 295.988 427.947 295.988zM427.947 232.007c24.25 0 43.986 19.732 43.986 43.987 0 11.043-4.123 21.118-10.863 28.851-5.443-2.25-11.067-4.89-13.129-6.319v-7.146c4.67-6.092 7.998-13.676 7.998-21.423 0-17.077-12.036-29.952-27.992-29.952s-27.991 12.875-27.991 29.952c0 7.747 3.327 15.331 7.997 21.423v7.146c-2.062 1.43-7.685 4.069-13.129 6.319-6.74-7.732-10.863-17.808-10.863-28.851C383.961 251.739 403.697 232.007 427.947 232.007z" fill="#ffffff" data-fill-palette-color="accent"></path><path d="M152.032 165.68v38.336c0 2.21 1.789 3.999 3.999 3.999h191.941c2.21 0 3.999-1.789 3.999-3.999v-95.971c0-2.21-1.789-3.999-3.999-3.999H156.03c-2.21 0-3.999 1.789-3.999 3.999v38.332l-6.826 6.826c-0.75 0.75-1.171 1.765-1.171 2.827 0 1.063 0.422 2.078 1.171 2.827L152.032 165.68zM158.857 150.86c0.75-0.75 1.172-1.766 1.172-2.827v-35.989h183.943v87.973H160.029v-35.993c0-1.063-0.422-2.078-1.172-2.828l-5.17-5.167L158.857 150.86z" fill="#ffffff" data-fill-palette-color="accent"></path><path d="M351.971 228.009c0-2.211-1.789-3.999-3.999-3.999H156.03c-2.21 0-3.999 1.788-3.999 3.999v95.971c0 2.21 1.789 3.999 3.999 3.999h191.941c2.21 0 3.999-1.789 3.999-3.999v-46.33l6.826-6.826c1.562-1.562 1.562-4.093 0-5.654l-6.826-6.826V228.009zM345.145 273.166c-0.75 0.75-1.172 1.766-1.172 2.828v43.986H160.029v-87.973h183.943v27.992c0 1.062 0.422 2.077 1.172 2.827l5.17 5.17L345.145 273.166z" fill="#ffffff" data-fill-palette-color="accent"></path><path d="M28.069 383.961h447.863c2.21 0 3.999-1.789 3.999-3.999v-31.99c0-2.21-1.789-3.999-3.999-3.999H28.069c-2.21 0-3.999 1.789-3.999 3.999v31.99C24.07 382.172 25.859 383.961 28.069 383.961zM32.068 351.971h439.865v23.992H32.068V351.971z" fill="#ffffff" data-fill-palette-color="accent"></path><path d="M28.069 399.956h63.98c2.21 0 3.999-1.788 3.999-3.999 0-2.21-1.789-3.998-3.999-3.998h-63.98c-2.21 0-3.999 1.788-3.999 3.998C24.07 398.168 25.859 399.956 28.069 399.956z" fill="#ffffff" data-fill-palette-color="accent"></path><path d="M323.979 248.002H180.023c-2.211 0-3.999 1.789-3.999 3.999 0 2.21 1.788 3.999 3.999 3.999h143.956c2.21 0 3.999-1.789 3.999-3.999C327.979 249.791 326.189 248.002 323.979 248.002z" fill="#ffffff" data-fill-palette-color="accent"></path><path d="M323.979 271.995H180.023c-2.211 0-3.999 1.788-3.999 3.999 0 2.21 1.788 3.998 3.999 3.998h143.956c2.21 0 3.999-1.788 3.999-3.998C327.979 273.783 326.189 271.995 323.979 271.995z" fill="#ffffff" data-fill-palette-color="accent"></path><path d="M252.001 295.988h-71.978c-2.211 0-3.999 1.788-3.999 3.998 0 2.211 1.788 3.999 3.999 3.999h71.978c2.21 0 3.999-1.788 3.999-3.999C256 297.776 254.211 295.988 252.001 295.988z" fill="#ffffff" data-fill-palette-color="accent"></path><path d="M180.023 136.037h143.956c2.21 0 3.999-1.789 3.999-3.999 0-2.211-1.789-3.999-3.999-3.999H180.023c-2.211 0-3.999 1.788-3.999 3.999C176.024 134.248 177.813 136.037 180.023 136.037z" fill="#ffffff" data-fill-palette-color="accent"></path><path d="M180.023 160.029h143.956c2.21 0 3.999-1.789 3.999-3.999 0-2.21-1.789-3.999-3.999-3.999H180.023c-2.211 0-3.999 1.789-3.999 3.999C176.024 158.241 177.813 160.029 180.023 160.029z" fill="#ffffff" data-fill-palette-color="accent"></path><path d="M180.023 184.022h71.978c2.21 0 3.999-1.789 3.999-3.999 0-2.211-1.789-3.999-3.999-3.999h-71.978c-2.211 0-3.999 1.788-3.999 3.999C176.024 182.233 177.813 184.022 180.023 184.022z" fill="#ffffff" data-fill-palette-color="accent"></path></g></svg></g></svg></g><g><rect width="49.87042941382914" height="6.298173648633443" y="89.21963934791131" x="271.0940505861708" fill="#ffffff" data-fill-palette-color="secondary"></rect><rect width="49.87042941382914" height="6.298173648633443" y="89.21963934791131" x="76.53311999999997" fill="#ffffff" data-fill-palette-color="secondary"></rect></g></svg></g><defs></defs></svg><rect width="395.52" height="204.60691116208082" fill="none" stroke="none" visibility="hidden"></rect></g></svg></g></svg>